<?xml version="1.0" encoding="UTF-8" standalone="no"?>
<!-- Created with Inkscape (http://www.inkscape.org/) -->

<svg
   version="1.1"
   id="svg2"
   width="240"
   height="190"
   viewBox="0 0 240 190"
   sodipodi:docname="oil-drip.svg"
   inkscape:version="1.1 (c68e22c387, 2021-05-23)"
   xmlns:inkscape="http://www.inkscape.org/namespaces/inkscape"
   xmlns:sodipodi="http://sodipodi.sourceforge.net/DTD/sodipodi-0.dtd"
   xmlns="http://www.w3.org/2000/svg"
   xmlns:svg="http://www.w3.org/2000/svg">
  <defs
     id="defs6">
    <inkscape:path-effect
       effect="spiro"
       id="path-effect2524"
       is_visible="true"
       lpeversion="1" />
    <inkscape:path-effect
       effect="spiro"
       id="path-effect2240"
       is_visible="true"
       lpeversion="1" />
    <inkscape:path-effect
       effect="spiro"
       id="path-effect1914"
       is_visible="true"
       lpeversion="1" />
    <inkscape:path-effect
       effect="spiro"
       id="path-effect870"
       is_visible="true"
       lpeversion="1" />
    <inkscape:path-effect
       effect="spiro"
       id="path-effect866"
       is_visible="true"
       lpeversion="1" />
    <inkscape:path-effect
       effect="spiro"
       id="path-effect862"
       is_visible="true"
       lpeversion="1" />
  </defs>
  <sodipodi:namedview
     id="namedview4"
     pagecolor="#ffffff"
     bordercolor="#666666"
     borderopacity="1.0"
     inkscape:pageshadow="2"
     inkscape:pageopacity="0.0"
     inkscape:pagecheckerboard="0"
     showgrid="false"
     inkscape:snap-global="false"
     inkscape:zoom="1.6381307"
     inkscape:cx="158.10704"
     inkscape:cy="157.19136"
     inkscape:window-width="1920"
     inkscape:window-height="1017"
     inkscape:window-x="-8"
     inkscape:window-y="-8"
     inkscape:window-maximized="1"
     inkscape:current-layer="g8" />
  <g
     inkscape:groupmode="layer"
     inkscape:label="Image"
     id="g8">
    <path
       style="fill:#000000;fill-opacity:1;stroke:none;stroke-width:1.26627px;stroke-linecap:butt;stroke-linejoin:miter;stroke-opacity:1"
       d="m 103.45058,20.143385 c -1.48371,0.782804 -2.70109,1.99096 -3.76835,3.285229 -0.685903,0.831792 -1.337039,1.744429 -1.545992,2.802106 -0.129397,0.65495 -0.0814,1.332817 0.02349,1.992136 0.104887,0.659319 0.265861,1.308955 0.362982,1.969463 0.291597,1.983082 -0.02369,4.083506 -1.062866,5.797462 -0.322607,0.532062 -0.719089,1.030982 -1.230988,1.384709 -0.511909,0.353727 -1.150309,0.551629 -1.76437,0.451154 -0.327122,-0.05353 -0.638906,-0.189735 -0.908138,-0.383088 -0.269233,-0.193352 -0.496328,-0.443008 -0.674453,-0.722548 -0.356259,-0.559078 -0.512678,-1.227482 -0.543141,-1.88972 -0.07492,-1.627957 0.570699,-3.204969 0.676365,-4.831217 0.0653,-1.004366 -0.08373,-2.036158 -0.535072,-2.935767 -0.451346,-0.899609 -1.221411,-1.656798 -2.170408,-1.992076 -0.754413,-0.266532 -1.59508,-0.258092 -2.359544,-0.02193 -0.764463,0.236162 -1.452853,0.69326 -2.003743,1.273516 -1.101777,1.160514 -1.63148,2.763627 -1.820672,4.352625 -0.439074,3.687724 0.78037,7.444733 0.193249,11.111802 -0.11128,0.695054 -0.28826,1.383213 -0.579419,2.024081 -0.291159,0.640867 -0.69971,1.234527 -1.232909,1.694075 -0.533198,0.459546 -1.194948,0.780343 -1.894365,0.859717 -0.699418,0.07937 -1.43406,-0.09328 -1.994146,-0.519648 -0.518007,-0.394339 -0.866491,-0.985524 -1.036812,-1.613876 -0.17032,-0.628351 -0.171769,-1.293141 -0.08344,-1.938148 0.176647,-1.290013 0.701944,-2.508976 0.92701,-3.791429 0.192605,-1.097482 0.154781,-2.260364 -0.288234,-3.282763 -0.221507,-0.511201 -0.543157,-0.981475 -0.955942,-1.355639 -0.412786,-0.374163 -0.917768,-0.650269 -1.461307,-0.772564 -0.696563,-0.156726 -1.440654,-0.05546 -2.091375,0.238352 -0.650721,0.29381 -1.209492,0.773635 -1.638839,1.344092 -0.858695,1.140918 -1.188698,2.597725 -1.294252,4.021771 -0.366219,4.94069 1.682444,9.691033 2.898731,14.493655 0.408645,1.613573 0.725927,3.301724 0.404456,4.934901 -0.160737,0.816589 -0.484621,1.608143 -0.996161,2.264634 -0.511538,0.65649 -1.21663,1.172405 -2.017154,1.400033 -0.709196,0.201658 -1.47728,0.172415 -2.179928,-0.051 -0.702646,-0.223415 -1.339633,-0.636805 -1.854642,-1.164431 -1.030021,-1.055257 -1.548839,-2.532351 -1.666266,-4.002288 -0.149318,-1.869131 0.300582,-3.731144 0.812519,-5.534992 0.511937,-1.803847 1.093277,-3.60916 1.216592,-5.480186 0.113014,-1.714778 -0.178444,-3.481179 -1.014473,-4.982609 -0.836027,-1.501428 -2.247011,-2.713738 -3.91337,-3.133838 -0.928286,-0.234027 -1.904502,-0.221905 -2.852706,-0.09003 -0.948205,0.131869 -1.875541,0.380786 -2.803114,0.617615 -0.927575,0.236828 -1.862423,0.462849 -2.816013,0.547387 -0.953592,0.08454 -1.932781,0.02313 -2.833218,-0.301969 -1.003908,-0.362463 -1.869714,-1.037623 -2.606949,-1.809436 -0.737237,-0.771811 -1.359402,-1.644092 -2.006667,-2.492773 -0.647264,-0.848681 -1.328654,-1.683282 -2.159076,-2.35381 -0.830422,-0.670531 -1.826578,-1.172933 -2.889744,-1.26718 -0.923744,-0.08189 -1.867213,0.152332 -2.664702,0.625635 -0.79749,0.473304 -1.449,1.179816 -1.889265,1.996011 -0.880529,1.632391 -0.888262,3.646979 -0.277252,5.398178 0.346277,0.992454 0.874806,1.909048 1.354489,2.844342 0.479685,0.935296 0.917955,1.911785 1.06112,2.95312 0.179333,1.30441 -0.142335,2.692123 -0.968105,3.717672 -0.412885,0.512775 -0.945534,0.930712 -1.548014,1.1961 -0.602479,0.265389 -1.274254,0.376339 -1.928601,0.303943 -1.106155,-0.122385 -2.119108,-0.769417 -2.799539,-1.650081 -0.68043,-0.880664 -1.045908,-1.977687 -1.16206,-3.084513 -0.173285,-1.651234 0.183877,-3.310532 0.620045,-4.912517 0.436167,-1.601986 0.956095,-3.194273 1.119194,-4.846544 0.256361,-2.597069 -0.397479,-5.243205 -1.642615,-7.536701 -2.275706,-4.191765 -6.588357,-7.214307 -11.305052,-7.923198 l 87.638301,-0.193249 c -1.24348,0.05282 -2.4743,0.385464 -3.5751,0.966244 z"
       id="path860"
       sodipodi:nodetypes="ssssssssssssssssssssssssssssccs" />
    <path
       style="fill:#000000;fill-opacity:1;stroke:none;stroke-width:1.26627px;stroke-linecap:butt;stroke-linejoin:miter;stroke-opacity:1"
       d="m 26.156159,92.047384 c 0.339502,4.596963 -0.719896,9.210226 -0.400865,13.808656 0.131206,1.8912 0.527581,3.83892 1.667698,5.35351 0.570057,0.75729 1.322788,1.38795 2.19942,1.74846 0.876633,0.36052 1.879109,0.43931 2.781772,0.15007 0.593807,-0.19029 1.134467,-0.53445 1.576692,-0.97403 0.442223,-0.43961 0.787153,-0.97307 1.030666,-1.5471 0.487032,-1.14807 0.56448,-2.43698 0.418114,-3.67546 -0.234836,-1.98708 -1.01835,-3.86556 -1.877425,-5.67266 -0.859078,-1.80711 -1.806349,-3.584319 -2.404867,-5.493619 -0.598519,-1.909299 -0.830959,-3.995551 -0.235181,-5.90571 0.297889,-0.955078 0.803034,-1.851624 1.506768,-2.562729 0.703735,-0.711105 1.609536,-1.231033 2.590793,-1.426091 0.70758,-0.140657 1.43598,-0.113039 2.156784,-0.142943 0.720805,-0.02991 1.461565,-0.12507 2.088204,-0.482523 0.435285,-0.248302 0.794685,-0.612396 1.102244,-1.008038 0.307559,-0.395644 0.567874,-0.825356 0.845574,-1.2425 0.2777,-0.417144 0.576081,-0.825564 0.946578,-1.162993 0.370496,-0.337428 0.81976,-0.602554 1.313158,-0.690208 0.518708,-0.09215 1.064434,0.01909 1.526146,0.272806 0.46171,0.253718 0.841204,0.644213 1.117247,1.092933 0.552084,0.897441 0.687086,1.989716 0.689476,3.043372 0.0049,2.102108 -0.46325,4.221391 -0.09394,6.290809 0.184653,1.034708 0.590301,2.049808 1.293664,2.830834 0.351682,0.390511 0.775312,0.718597 1.250322,0.943421 0.475009,0.224825 1.001741,0.344864 1.527004,0.328172 0.592233,-0.01878 1.174945,-0.211994 1.67369,-0.531911 0.498745,-0.319915 0.913999,-0.764163 1.219375,-1.271941 0.61075,-1.015556 0.770158,-2.259883 0.607211,-3.433688 -0.162945,-1.173807 -0.628851,-2.286695 -1.196084,-3.327185 -0.56723,-1.040491 -1.237842,-2.020608 -1.849253,-3.035766 -0.434122,-0.720798 -0.847702,-1.488682 -0.915532,-2.327376 -0.03391,-0.419348 0.02297,-0.850426 0.199966,-1.232101 0.17699,-0.381677 0.478947,-0.710836 0.860973,-0.887065 0.250431,-0.115522 0.529537,-0.163788 0.805187,-0.154925 0.275649,0.0089 0.547977,0.0738 0.804348,0.17545 0.512743,0.203322 0.955916,0.548125 1.373733,0.90823 0.417814,0.360105 0.820826,0.742124 1.28542,1.03944 0.464597,0.297315 1.004543,0.508358 1.555472,0.481504 0.357491,-0.01742 0.704577,-0.134221 1.02402,-0.295649 0.319444,-0.161427 0.614179,-0.367049 0.906569,-0.573471 0.292389,-0.206426 0.5847,-0.415036 0.900639,-0.58322 0.315939,-0.168183 0.658381,-0.29578 1.014808,-0.328388 0.556258,-0.05089 1.11676,0.135069 1.584208,0.440854 0.46745,0.305782 0.850085,0.725436 1.186858,1.171078 0.673542,0.891283 1.205525,1.925584 2.105622,2.587303 0.571294,0.419995 1.279064,0.664508 1.987618,0.637582 0.708553,-0.02692 1.411324,-0.336007 1.875054,-0.872412 0.321996,-0.372453 0.521656,-0.838246 0.638603,-1.3165 0.116952,-0.478252 0.155309,-0.971845 0.185898,-1.463239 0.0306,-0.491393 0.05399,-0.984835 0.142086,-1.469236 0.08809,-0.484399 0.243862,-0.963262 0.519006,-1.371549 0.410859,-0.60967 1.073779,-1.028149 1.786516,-1.208456 0.712736,-0.180307 1.471292,-0.133615 2.180335,0.06069 1.418091,0.388633 2.60792,1.32978 3.775128,2.224007 1.848339,1.416054 3.792851,2.819561 5.015799,4.800966 1.139594,1.846358 1.556658,4.059719 1.604034,6.228927 0.04738,2.169209 -0.251988,4.32871 -0.440228,6.490257 -0.105657,1.213266 -0.17192,2.466213 0.218596,3.619767 0.19526,0.57677 0.506491,1.12017 0.94326,1.54446 0.436768,0.42431 1.003356,0.72438 1.607937,0.79702 0.499127,0.0599 1.012101,-0.0358 1.468446,-0.24676 0.456342,-0.2109 0.856864,-0.53412 1.181769,-0.91774 0.64981,-0.76723 0.988676,-1.75343 1.172946,-2.74184 0.380537,-2.04121 0.154839,-4.15367 -0.310893,-6.177144 -0.46574,-2.023474 -1.167143,-3.983861 -1.752498,-5.976025 -0.469082,-1.596454 -0.865961,-3.284857 -0.513947,-4.911138 0.176004,-0.81314 0.5454,-1.594409 1.122871,-2.193325 0.577471,-0.598918 1.371226,-1.003955 2.202299,-1.042709 0.679423,-0.03168 1.352347,0.176994 1.957742,0.487033 0.605405,0.310041 1.153224,0.719461 1.703129,1.119751 0.549905,0.400293 1.10962,0.796075 1.730353,1.074143 0.620733,0.278067 1.31263,0.434083 1.985077,0.331851 0.789659,-0.120056 1.481359,-0.578898 2.133879,-1.039552 0.65253,-0.460653 1.31772,-0.945631 2.09446,-1.131812 0.62185,-0.149051 1.28713,-0.09286 1.88539,0.132925 0.59827,0.225782 1.1293,0.617434 1.54332,1.104759 0.82806,0.974652 1.16743,2.299638 1.12168,3.577729 -0.0457,1.278091 -0.4479,2.519262 -0.96242,3.690107 -0.51452,1.170844 -1.14333,2.288142 -1.67709,3.450343 -1.11288,2.42316 -1.80994,5.071529 -1.73613,7.737006 0.0336,1.214738 0.23493,2.449138 0.80546,3.522078 0.28527,0.53648 0.66183,1.02732 1.12582,1.41962 0.46398,0.39229 1.01668,0.68427 1.6094,0.81799 1.0242,0.23106 2.13252,-0.0307 2.99502,-0.62936 0.8625,-0.59873 1.48315,-1.51424 1.80262,-2.51441 0.36768,-1.15107 0.34968,-2.394239 0.16837,-3.588919 -0.18132,-1.194681 -0.52042,-2.358843 -0.78765,-3.537285 -0.55969,-2.468198 -0.8026,-5.042818 -0.34912,-7.532719 0.45348,-2.4899 1.65005,-4.896676 3.60269,-6.506772 1.051,-0.866628 2.30973,-1.490247 3.64766,-1.746308 1.33794,-0.256061 2.75331,-0.137421 4.00951,0.389468 0.77757,0.326141 1.48267,0.79945 2.19626,1.248667 0.71357,0.44922 1.45102,0.881569 2.26206,1.112236 1.42481,0.405231 2.9741,0.149963 4.33716,-0.42999 1.36305,-0.579951 2.5707,-1.46589 3.74971,-2.362677 3.36724,-2.561214 6.61623,-5.277886 9.73315,-8.138466 L 8.8373856,71.606168 c 4.6386514,1.128905 8.8990184,3.76043 11.9850984,7.402907 3.086079,3.642475 4.982052,8.27723 5.333675,13.038309 z"
       id="path864"
       sodipodi:nodetypes="ssssssssssssssssssssssssssssssssssccs" />
    <path
       style="fill:#000000;fill-opacity:1;stroke:none;stroke-width:1.26627px;stroke-linecap:butt;stroke-linejoin:miter;stroke-opacity:1"
       d="m 133.62084,26.730724 c 0.91906,1.749214 1.54398,3.672909 2.75038,5.237828 0.6032,0.782459 1.35522,1.467165 2.25014,1.885731 0.89493,0.418565 1.94113,0.554557 2.88524,0.263405 0.8924,-0.275203 1.62713,-0.897368 2.41255,-1.402539 0.39272,-0.252586 0.80638,-0.479748 1.25279,-0.616721 0.44638,-0.136973 0.92929,-0.180302 1.38176,-0.06501 0.37538,0.09564 0.72059,0.298987 0.99731,0.570036 0.27672,0.271048 0.48563,0.608408 0.6198,0.971776 0.26835,0.726737 0.23439,1.540577 0.0205,2.28517 -0.42773,1.489188 -1.5117,2.683534 -2.31367,4.009238 -1.43716,2.375758 -1.97158,5.223289 -1.86309,7.997805 0.0638,1.63359 0.37114,3.329571 1.35965,4.631703 0.49426,0.651068 1.15585,1.185439 1.9226,1.468769 0.76674,0.283328 1.63975,0.30352 2.39625,-0.0061 0.67589,-0.276618 1.23449,-0.803594 1.61025,-1.4298 0.37577,-0.626206 0.57598,-1.347529 0.64728,-2.074335 0.14263,-1.453613 -0.2146,-2.902801 -0.49055,-4.337088 -0.35053,-1.821947 -0.57338,-3.679836 -0.46565,-5.532065 0.10751,-1.852238 0.55681,-3.705038 1.48172,-5.313415 0.30209,-0.525287 0.65988,-1.029337 1.13351,-1.407309 0.47361,-0.377969 1.07584,-0.621334 1.67989,-0.573412 0.32462,0.02569 0.63823,0.133421 0.93179,0.274363 0.29356,0.140933 0.56963,0.315157 0.84877,0.482877 0.27912,0.167721 0.5635,0.330038 0.8683,0.444619 0.30482,0.114585 0.63279,0.180363 0.9569,0.148862 0.43059,-0.04186 0.8313,-0.253826 1.16108,-0.533836 0.32978,-0.280011 0.59598,-0.626401 0.8487,-0.977535 0.25272,-0.351136 0.49579,-0.711275 0.78905,-1.02932 0.29329,-0.318045 0.64277,-0.595572 1.0505,-0.740164 0.3633,-0.128833 0.76321,-0.146604 1.13976,-0.06414 0.37654,0.08247 0.72935,0.263515 1.0252,0.510628 0.59169,0.494221 0.94105,1.239359 1.05068,2.002471 0.10965,0.763113 -0.005,1.544563 -0.22158,2.284378 -0.21686,0.739818 -0.53426,1.445464 -0.84053,2.152965 -0.61687,1.425006 -1.1948,2.875577 -1.53642,4.390324 -0.34164,1.514747 -0.44071,3.104337 -0.0984,4.618941 0.20666,0.914616 0.58291,1.808571 1.21085,2.504948 0.31396,0.348187 0.6889,0.643586 1.10962,0.850474 0.42071,0.206889 0.88765,0.323959 1.35647,0.321229 0.88863,-0.0052 1.74503,-0.448612 2.34138,-1.107444 0.59634,-0.658833 0.9461,-1.51641 1.08702,-2.393808 0.28185,-1.754794 -0.23233,-3.525613 -0.64576,-5.25414 -0.48582,-2.031088 -0.83939,-4.11966 -0.68212,-6.20211 0.15732,-2.082448 0.86333,-4.174174 2.27625,-5.712034 0.71327,-0.776345 1.60228,-1.401447 2.59902,-1.74492 0.99673,-0.343474 2.10225,-0.396244 3.10909,-0.08357 1.20852,0.375311 2.22654,1.265169 2.86296,2.358943 0.63643,1.093772 0.90677,2.378368 0.88519,3.643641 -0.0324,1.898866 -0.69246,3.722011 -1.27749,5.528801 -0.58501,1.806792 -1.10757,3.700701 -0.85498,5.582969 0.13873,1.033744 0.52716,2.057214 1.24108,2.817604 0.35697,0.380197 0.79211,0.689784 1.27677,0.882338 0.48467,0.192554 1.01898,0.26597 1.53493,0.189984 0.79546,-0.117143 1.51665,-0.588457 2.01369,-1.220463 0.49704,-0.632007 0.78076,-1.414471 0.89374,-2.210528 0.22598,-1.592118 -0.20337,-3.193564 -0.54122,-4.765751 -0.47895,-2.228938 -0.77919,-4.533821 -0.43257,-6.787134 0.34661,-2.253315 1.40365,-4.467086 3.22519,-5.838046 1.70841,-1.28581 3.91886,-1.723201 6.05659,-1.76923 2.13771,-0.04603 4.26797,0.261308 6.40589,0.295945 6.16259,0.09985 12.33416,-2.164575 16.96979,-6.226407 l -94.6418,-2.81555 c 4.65105,1.162204 8.74811,4.381187 10.97791,8.625135 z"
       id="path868"
       sodipodi:nodetypes="ssscsssssssssssssssssssccs" />
    <path
       style="fill:#000000;fill-opacity:1;stroke:none;stroke-width:1.26627px;stroke-linecap:butt;stroke-linejoin:miter;stroke-opacity:1"
       d="m 142.41098,126.58886 c 1.17328,1.2996 2.24724,2.702 3.05289,4.25652 0.80565,1.5545 1.33777,3.26938 1.39184,5.01941 0.0544,1.75732 -0.36915,3.4892 -0.73813,5.20819 -0.36899,1.719 -0.68708,3.48929 -0.42137,5.22724 0.13199,0.86332 0.41218,1.71288 0.89578,2.4401 0.4836,0.72723 1.17963,1.32683 2.00296,1.61814 0.89748,0.31753 1.91368,0.25114 2.78624,-0.12958 0.87256,-0.3807 1.60051,-1.06336 2.0869,-1.88174 0.48638,-0.81837 0.73663,-1.76715 0.77607,-2.71833 0.0394,-0.9512 -0.12749,-1.90491 -0.4315,-2.80706 -0.58594,-1.73875 -1.66175,-3.26535 -2.4431,-4.92549 -0.39066,-0.83007 -0.70971,-1.70169 -0.84361,-2.60928 -0.13391,-0.90759 -0.076,-1.85573 0.26505,-2.70741 0.40136,-1.00247 1.20077,-1.84243 2.18904,-2.27758 0.98827,-0.43516 2.15459,-0.45613 3.15161,-0.0414 1.1637,0.48406 2.01435,1.48498 2.9158,2.36583 0.45071,0.44043 0.92805,0.86076 1.47322,1.17688 0.54515,0.3161 1.16482,0.52499 1.79493,0.51552 0.7281,-0.0114 1.4277,-0.31217 2.02614,-0.72703 0.59845,-0.41487 1.10955,-0.94107 1.62058,-1.45979 0.51105,-0.51874 1.03117,-1.03763 1.6422,-1.43372 0.61103,-0.39609 1.32716,-0.6652 2.05453,-0.63095 0.8604,0.0405 1.67021,0.51323 2.21047,1.1841 0.54028,0.67085 0.82568,1.5234 0.90406,2.38119 0.15677,1.71558 -0.4699,3.39156 -0.98879,5.03429 -0.70076,2.21854 -1.22396,4.54807 -0.96625,6.86033 0.10371,0.93065 0.34508,1.87173 0.89584,2.62905 0.27539,0.37865 0.62657,0.70562 1.03807,0.92898 0.41149,0.22334 0.88431,0.34033 1.35133,0.30695 0.56087,-0.04 1.09591,-0.29663 1.51235,-0.67449 0.41644,-0.37785 0.71833,-0.87176 0.9122,-1.39959 0.38772,-1.05569 0.34979,-2.21436 0.28092,-3.33689 -0.16612,-2.7078 -0.48134,-5.4466 2e-5,-8.11645 0.22869,-1.26849 0.64494,-2.52156 1.38017,-3.58023 0.73522,-1.05869 1.81226,-1.91198 3.06453,-2.21724 0.7596,-0.18515 1.56374,-0.16521 2.3229,0.0218 0.75916,0.18696 1.47377,0.53816 2.1081,0.9952 1.26869,0.91408 2.19923,2.22949 2.91246,3.62104 1.51075,2.94748 2.12672,6.30379 2.07885,9.61555 -0.0536,3.70469 -0.90864,7.34419 -1.69236,10.96544 -0.3243,1.49846 -0.6388,3.01994 -0.55868,4.551 0.04,0.76552 0.18032,1.52932 0.45933,2.24332 0.279,0.71402 0.69954,1.37767 1.25885,1.90189 0.96506,0.9045 2.33795,1.35253 3.65211,1.20269 1.31416,-0.14983 2.54722,-0.89151 3.30485,-1.97569 0.70472,-1.0085 0.99186,-2.26242 1.01571,-3.49251 0.0238,-1.23009 -0.19914,-2.4504 -0.43598,-3.65771 -0.692,-3.52772 -1.50933,-7.02944 -2.31897,-10.53205 -0.55809,-2.41435 -1.11623,-4.86999 -0.96625,-7.34347 0.20801,-3.43047 1.79563,-6.689 4.05823,-9.27593 2.70297,-3.09042 6.30755,-5.26614 10.04892,-6.95695 3.64617,-1.64779 7.47901,-2.88211 11.40155,-3.67172 h -89.28078 c 4.48045,1.8501 8.53986,4.71165 11.78817,8.3097 z"
       id="path1912"
       sodipodi:nodetypes="sssssssssssssssssssssssssccs" />
    <path
       style="fill:#000000;fill-opacity:1;stroke:none;stroke-width:1.62182px;stroke-linecap:butt;stroke-linejoin:miter;stroke-opacity:1"
       d="m 102.83801,136.80118 c -0.26437,0.78448 -0.46769,1.58947 -0.76186,2.36325 -0.29415,0.77378 -0.68759,1.52576 -1.27514,2.10889 -0.47518,0.47161 -1.070285,0.82113 -1.713185,1.00784 -0.64291,0.18668 -1.33231,0.21029 -1.98679,0.0693 -1.30898,-0.28177 -2.447894,-1.24873 -2.947806,-2.49083 -0.295565,-0.73438 -0.374807,-1.53412 -0.511999,-2.31375 -0.137213,-0.77965 -0.349082,-1.57728 -0.854703,-2.18638 -0.562702,-0.67788 -1.437066,-1.04331 -2.312929,-1.13812 -0.875852,-0.0949 -1.760057,0.0562 -2.615965,0.26511 -1.098807,0.26795 -2.182271,0.63528 -3.158006,1.20718 -0.975734,0.57189 -1.843014,1.35832 -2.400487,2.34238 -0.605187,1.06822 -0.81911,2.30791 -1.251958,3.45682 -0.21643,0.57445 -0.491995,1.13317 -0.882423,1.60687 -0.390453,0.47369 -0.903216,0.86 -1.492954,1.03041 -0.738955,0.21357 -1.547353,0.0729 -2.243052,-0.25513 -0.695688,-0.32808 -1.293251,-0.83156 -1.849066,-1.36325 -0.555815,-0.5317 -1.080063,-1.09847 -1.675119,-1.58587 -0.595045,-0.48739 -1.273384,-0.89817 -2.025698,-1.05839 -0.620901,-0.13219 -1.276296,-0.0873 -1.878949,0.11244 -0.60263,0.19958 -1.151986,0.55167 -1.59765,1.00376 -0.891312,0.9042 -1.344509,2.1911 -1.348625,3.46075 -0.0051,1.53074 0.593564,2.98796 1.048445,4.44957 0.227421,0.7308 0.421413,1.47672 0.486397,2.23933 0.06509,0.76262 -0.0038,1.54621 -0.285593,2.25761 -0.361456,0.9107 -1.075567,1.67371 -1.95461,2.10648 -0.87908,0.43279 -1.914176,0.53411 -2.863826,0.29281 -0.949649,-0.24126 -1.807457,-0.82082 -2.396435,-1.60387 -0.588991,-0.78303 -0.907369,-1.76326 -0.904368,-2.74306 0.0038,-0.86694 0.248163,-1.71687 0.573594,-2.52039 0.325442,-0.80355 0.731572,-1.57189 1.076631,-2.36722 0.345057,-0.79532 0.631106,-1.62849 0.69751,-2.49288 0.06635,-0.8644 -0.102822,-1.76834 -0.601793,-2.47729 -0.45083,-0.64058 -1.151671,-1.08778 -1.909747,-1.28504 -0.758101,-0.19729 -1.568815,-0.15327 -2.32061,0.0666 -1.503591,0.44004 -2.725501,1.54133 -3.732967,2.7411 -1.33386,1.58849 -2.395675,3.4196 -2.999394,5.40403 -0.603743,1.98444 -0.739474,4.12451 -0.276894,6.14651 0.353731,1.54622 1.043201,2.99118 1.697962,4.43591 0.654749,1.44474 1.285869,2.92465 1.510555,4.49481 0.112192,0.78509 0.120676,1.58868 -0.02216,2.3688 -0.142722,0.78012 -0.439547,1.53676 -0.903723,2.17982 -0.464188,0.64305 -1.099221,1.16916 -1.835631,1.46364 -0.736385,0.29445 -1.573893,0.34944 -2.330196,0.11079 -0.956424,-0.3019 -1.728049,-1.05054 -2.219855,-1.92461 -0.49183,-0.87408 -0.729103,-1.86878 -0.872469,-2.8614 -0.458845,-3.17669 -0.01014,-6.40514 0.390706,-9.58971 0.400419,-3.18456 0.749807,-6.43975 0.09801,-9.58254 -0.721949,-3.48129 -2.631822,-6.6051 -4.809446,-9.41556 -3.0457,-3.93084 -6.681102,-7.40391 -10.746882,-10.26694 l 88.148203,-0.13381 c -3.28572,0.0347 -6.55256,1.11492 -9.2112,3.04587 -2.65866,1.93095 -4.69648,4.7034 -5.74585,7.81721 z"
       id="path2238"
       sodipodi:nodetypes="csssssssssssssssssccc" />
    <path
       style="fill:#000000;fill-opacity:1;stroke:none;stroke-width:1.26627px;stroke-linecap:butt;stroke-linejoin:miter;stroke-opacity:1"
       d="m 210.02711,69.325177 c -2.07201,0.833583 -3.8848,2.330754 -5.02448,4.251478 -1.22984,2.072677 -1.64177,4.516305 -2.51223,6.7637 -0.8038,2.07531 -1.99974,3.983436 -2.77179,6.070762 -0.98894,2.673709 -1.25291,5.594088 -0.89994,8.422902 0.20908,1.675689 0.62911,3.381502 0.26001,5.029346 -0.18456,0.823935 -0.57776,1.617645 -1.20684,2.180825 -0.31453,0.2816 -0.68529,0.50247 -1.0876,0.63048 -0.40229,0.12801 -0.83612,0.16175 -1.2508,0.0826 -0.55041,-0.1051 -1.05431,-0.40785 -1.43835,-0.81591 -0.38404,-0.40807 -0.65178,-0.91754 -0.81313,-1.45416 -0.32273,-1.073246 -0.22603,-2.224701 -0.0675,-3.334152 0.21467,-1.502236 0.5374,-2.989075 0.96624,-4.444723 0.54466,-1.848813 1.26616,-3.678784 1.35274,-5.604206 0.0505,-1.122355 -0.12156,-2.258754 -0.54272,-3.300334 -0.42111,-1.04158 -1.09439,-1.98581 -1.9695,-2.690374 -0.81717,-0.657914 -1.83043,-1.106641 -2.87947,-1.119089 -0.52451,-0.0064 -1.05217,0.09725 -1.52756,0.318986 -0.47538,0.221749 -0.89705,0.563147 -1.19719,0.993348 -0.30157,0.432265 -0.4756,0.944052 -0.5619,1.463994 -0.0863,0.519955 -0.088,1.050255 -0.0686,1.576958 0.039,1.053408 0.15898,2.132912 -0.1425,3.143001 -0.16744,0.560982 -0.46501,1.084912 -0.87452,1.503274 -0.40953,0.418349 -0.93158,0.728889 -1.49942,0.871305 -0.56784,0.142417 -1.18011,0.113838 -1.72586,-0.09801 -0.54576,-0.211846 -1.02088,-0.608631 -1.31117,-1.117012 -0.2274,-0.398228 -0.33951,-0.855059 -0.37247,-1.312447 -0.0329,-0.457401 0.0101,-0.917157 0.0789,-1.370632 0.13636,-0.906977 0.37184,-1.814067 0.29362,-2.727881 -0.0737,-0.860251 -0.43567,-1.695772 -1.02464,-2.32707 -0.58898,-0.631296 -1.40297,-1.051887 -2.2606,-1.151416 -0.84194,-0.09776 -1.70958,0.112952 -2.43616,0.549472 -0.72658,0.436469 -1.31293,1.091686 -1.70596,1.842659 -0.78606,1.501931 -0.78219,3.325393 -0.30258,4.95133 0.36633,1.24193 0.98839,2.389939 1.57646,3.543534 0.58807,1.153594 1.152,2.339959 1.38743,3.613216 0.23544,1.273256 0.11118,2.659489 -0.59727,3.743325 -0.35424,0.541925 -0.85048,0.995894 -1.43801,1.267862 -0.58752,0.271969 -1.26648,0.355821 -1.89486,0.199982 -0.4862,-0.120548 -0.93299,-0.380285 -1.30098,-0.720139 -0.368,-0.339866 -0.65903,-0.758164 -0.87963,-1.207905 -0.44118,-0.899479 -0.60007,-1.908314 -0.71812,-2.903181 -0.543,-4.575845 -0.35902,-9.330095 -2.03396,-13.622853 -1.1635,-2.981969 -3.21236,-5.612132 -5.81895,-7.469947 -2.60661,-1.857817 -5.76134,-2.936398 -8.95973,-3.06329 l 60.68009,-1.932488 c -1.19131,0.06546 -2.37157,0.327697 -3.47846,0.772993 z"
       id="path2522"
       sodipodi:nodetypes="sssssssssssssssssssccs" />
    <path
       id="path4339"
       style="stroke-width:50.2518;stroke-linecap:round;stroke-linejoin:round;paint-order:markers stroke fill"
       d="m 55.042862,45.921754 a 3.3478635,3.3478635 0 0 1 -3.347863,3.347863 3.3478635,3.3478635 0 0 1 -3.347863,-3.347863 3.3478635,3.3478635 0 0 1 3.347863,-3.347864 3.3478635,3.3478635 0 0 1 3.347863,3.347864 z" />
    <path
       id="circle5352"
       style="stroke-width:38.2759;stroke-linecap:round;stroke-linejoin:round;paint-order:markers stroke fill"
       d="m 80.188634,94.088996 a 2.5500015,2.5500015 0 0 1 -2.550002,2.550002 2.5500015,2.5500015 0 0 1 -2.550001,-2.550002 2.5500015,2.5500015 0 0 1 2.550001,-2.550001 2.5500015,2.5500015 0 0 1 2.550002,2.550001 z" />
  </g>
</svg>
